<svg xmlns="http://www.w3.org/2000/svg" viewBox="0 0 512 512" width="512" height="512" fill="none">
  <defs>
    <linearGradient id="accent1" x1="0" y1="0" x2="1" y2="1">
      <stop offset="0%" stop-color="#C6DCE4"/>
      <stop offset="100%" stop-color="#B8E0D2"/>
    </linearGradient>
    <linearGradient id="accent2" x1="0" y1="0" x2="1" y2="1">
      <stop offset="0%" stop-color="#F4C095"/>
      <stop offset="100%" stop-color="#E6A57E"/>
    </linearGradient>
    <filter id="shadow" x="-20%" y="-20%" width="140%" height="140%">
      <feDropShadow dx="0" dy="4" stdDeviation="6" flood-color="#000" flood-opacity="0.12"/>
    </filter>
  </defs>

  <!-- Background -->
  <rect x="24" y="24" width="464" height="464" rx="28" fill="#F9F5EC"/>

  <!-- Hair dryer -->
  <g filter="url(#shadow)" stroke-linecap="round" stroke-linejoin="round">
    <path d="M132 292h92c28 0 52-20 58-47l3-14c2-8-4-15-12-15H172c-22 0-40 18-40 40v36z" fill="url(#accent1)" stroke="#2F2A2A" stroke-width="8"/>
    <rect x="116" y="292" width="44" height="72" rx="10" fill="#DDEBF1" stroke="#2F2A2A" stroke-width="8"/>
    <circle cx="300" cy="244" r="10" fill="#FFFFFF"/>
    <path d="M320 244h34" stroke="#2F2A2A" stroke-width="8"/>
    <path d="M320 260h34" stroke="#2F2A2A" stroke-width="8"/>
  </g>

  <!-- Comb -->
  <g filter="url(#shadow)" stroke-linecap="round" stroke-linejoin="round">
    <rect x="308" y="316" width="96" height="24" rx="10" fill="url(#accent2)" stroke="#2F2A2A" stroke-width="6"/>
    <path d="M316 316v24M328 316v24M340 316v24M352 316v24M364 316v24M376 316v24M388 316v24M400 316v24" stroke="#2F2A2A" stroke-width="6"/>
  </g>
</svg>

