<svg xmlns="http://www.w3.org/2000/svg" viewBox="0 0 512 512" width="512" height="512" fill="none">
  <defs>
    <linearGradient id="g1" x1="0" y1="0" x2="1" y2="1">
      <stop offset="0%" stop-color="#B8E0D2"/>
      <stop offset="100%" stop-color="#C6DCE4"/>
    </linearGradient>
    <linearGradient id="g2" x1="0" y1="0" x2="1" y2="1">
      <stop offset="0%" stop-color="#F4E1A1"/>
      <stop offset="100%" stop-color="#EACFA6"/>
    </linearGradient>
    <linearGradient id="g3" x1="0" y1="0" x2="1" y2="1">
      <stop offset="0%" stop-color="#F2B6A0"/>
      <stop offset="100%" stop-color="#E8A39A"/>
    </linearGradient>
    <filter id="shadow" x="-20%" y="-20%" width="140%" height="140%">
      <feDropShadow dx="0" dy="4" stdDeviation="6" flood-color="#000" flood-opacity="0.12"/>
    </filter>
  </defs>

  <!-- Background accent -->
  <rect x="24" y="24" width="464" height="464" rx="28" fill="#F9F5EC"/>

  <!-- Shampoo bottle -->
  <g filter="url(#shadow)" stroke-linecap="round" stroke-linejoin="round">
    <rect x="74" y="122" width="120" height="260" rx="28" fill="url(#g1)" stroke="#2F2A2A" stroke-width="6"/>
    <rect x="104" y="94" width="60" height="36" rx="10" fill="#DDEBF1" stroke="#2F2A2A" stroke-width="6"/>
    <rect x="112" y="84" width="44" height="18" rx="6" fill="#C9D9E8" stroke="#2F2A2A" stroke-width="4"/>
    <circle cx="134" cy="252" r="26" fill="#EEF6FA" stroke="#2F2A2A" stroke-width="5"/>
  </g>

  <!-- Conditioner bottle -->
  <g filter="url(#shadow)" stroke-linecap="round" stroke-linejoin="round">
    <rect x="206" y="146" width="120" height="236" rx="36" fill="url(#g2)" stroke="#2F2A2A" stroke-width="6"/>
    <rect x="236" y="118" width="60" height="36" rx="10" fill="#F2D7A0" stroke="#2F2A2A" stroke-width="6"/>
    <rect x="244" y="108" width="44" height="18" rx="6" fill="#E6C48E" stroke="#2F2A2A" stroke-width="4"/>
    <path d="M266 240c14 0 26 12 26 26s-12 26-26 26-26-12-26-26 12-26 26-26z" fill="#FEF3C7" stroke="#2F2A2A" stroke-width="5"/>
  </g>

  <!-- Hair oil: bottle + drop -->
  <g filter="url(#shadow)" stroke-linecap="round" stroke-linejoin="round">
    <rect x="338" y="170" width="100" height="212" rx="22" fill="url(#g3)" stroke="#2F2A2A" stroke-width="6"/>
    <rect x="362" y="142" width="52" height="32" rx="8" fill="#E8A39A" stroke="#2F2A2A" stroke-width="6"/>
    <path d="M388 274c18 26 28 40 28 56 0 22-18 40-40 40s-40-18-40-40c0-16 10-30 28-56 4-6 12-6 16 0z" fill="#FDE2E2" stroke="#2F2A2A" stroke-width="6"/>
  </g>
</svg>

