<svg xmlns="http://www.w3.org/2000/svg" viewBox="0 0 512 512" width="512" height="512" fill="none">
  <defs>
    <linearGradient id="g1" x1="0" y1="0" x2="1" y2="1">
      <stop offset="0%" stop-color="#7BDFF2"/>
      <stop offset="100%" stop-color="#B2F7EF"/>
    </linearGradient>
    <linearGradient id="g2" x1="0" y1="0" x2="1" y2="1">
      <stop offset="0%" stop-color="#FDE68A"/>
      <stop offset="100%" stop-color="#FCD34D"/>
    </linearGradient>
    <linearGradient id="g3" x1="0" y1="0" x2="1" y2="1">
      <stop offset="0%" stop-color="#FCA5A5"/>
      <stop offset="100%" stop-color="#F87171"/>
    </linearGradient>
    <filter id="shadow" x="-20%" y="-20%" width="140%" height="140%">
      <feDropShadow dx="0" dy="4" stdDeviation="8" flood-color="#000" flood-opacity="0.35"/>
    </filter>
  </defs>

  <rect x="24" y="24" width="464" height="464" rx="28" fill="#0B1220"/>

  <g filter="url(#shadow)">
    <rect x="74" y="122" width="120" height="260" rx="28" fill="url(#g1)" stroke="#E5E7EB" stroke-width="6"/>
    <rect x="104" y="94" width="60" height="36" rx="10" fill="#93C5FD" stroke="#E5E7EB" stroke-width="6"/>
    <rect x="112" y="84" width="44" height="18" rx="6" fill="#60A5FA" stroke="#E5E7EB" stroke-width="4"/>
    <circle cx="134" cy="252" r="26" fill="#E0F2FE" stroke="#E5E7EB" stroke-width="5"/>
  </g>

  <g filter="url(#shadow)">
    <rect x="206" y="146" width="120" height="236" rx="36" fill="url(#g2)" stroke="#E5E7EB" stroke-width="6"/>
    <rect x="236" y="118" width="60" height="36" rx="10" fill="#F59E0B" stroke="#E5E7EB" stroke-width="6"/>
    <rect x="244" y="108" width="44" height="18" rx="6" fill="#D97706" stroke="#E5E7EB" stroke-width="4"/>
    <path d="M266 240c14 0 26 12 26 26s-12 26-26 26-26-12-26-26 12-26 26-26z" fill="#FEF3C7" stroke="#E5E7EB" stroke-width="5"/>
  </g>

  <g filter="url(#shadow)">
    <rect x="338" y="170" width="100" height="212" rx="22" fill="url(#g3)" stroke="#E5E7EB" stroke-width="6"/>
    <rect x="362" y="142" width="52" height="32" rx="8" fill="#FB7185" stroke="#E5E7EB" stroke-width="6"/>
    <path d="M388 274c18 26 28 40 28 56 0 22-18 40-40 40s-40-18-40-40c0-16 10-30 28-56 4-6 12-6 16 0z" fill="#FDE2E2" stroke="#E5E7EB" stroke-width="6"/>
  </g>

  <text x="256" y="460" text-anchor="middle" font-family="Inter, system-ui, -apple-system, Segoe UI, Roboto" font-size="28" fill="#F9FAFB">Cabello</text>
</svg>

