<svg xmlns="http://www.w3.org/2000/svg" viewBox="0 0 512 512" width="512" height="512" fill="none">
  <defs>
    <linearGradient id="copper" x1="0" y1="0" x2="1" y2="1">
      <stop offset="0%" stop-color="#C9803E"/>
      <stop offset="100%" stop-color="#E09A55"/>
    </linearGradient>
    <linearGradient id="steel" x1="0" y1="0" x2="1" y2="1">
      <stop offset="0%" stop-color="#D1D5DB"/>
      <stop offset="100%" stop-color="#9CA3AF"/>
    </linearGradient>
    <filter id="shadow" x="-20%" y="-20%" width="140%" height="140%">
      <feDropShadow dx="0" dy="4" stdDeviation="8" flood-color="#000" flood-opacity="0.35"/>
    </filter>
  </defs>

  <rect x="24" y="24" width="464" height="464" rx="28" fill="#0B1220"/>

  <g filter="url(#shadow)">
    <rect x="92" y="160" width="148" height="180" rx="16" fill="url(#copper)" stroke="#E5E7EB" stroke-width="8"/>
    <rect x="92" y="140" width="148" height="28" rx="10" fill="#F5CFAA" stroke="#E5E7EB" stroke-width="6"/>
    <rect x="104" y="180" width="124" height="24" rx="6" fill="#F1DCC5" opacity="0.55"/>
    <path d="M250 182c26-18 56-10 70 4v80c-14 14-44 22-70 4" fill="none" stroke="#E5E7EB" stroke-width="10"/>
    <path d="M250 186c26-18 56-10 70 4v72c-14 14-44 22-70 4" fill="#FDE68A" opacity="0.35"/>
  </g>

  <g filter="url(#shadow)">
    <rect x="286" y="160" width="148" height="180" rx="16" fill="url(#steel)" stroke="#F3F4F6" stroke-width="8"/>
    <rect x="286" y="140" width="148" height="28" rx="10" fill="#E5E7EB" stroke="#F3F4F6" stroke-width="6"/>
    <rect x="298" y="180" width="124" height="24" rx="6" fill="#F3F4F6" opacity="0.7"/>
    <path d="M286 182c-26-18-56-10-70 4v80c14 14 44 22 70 4" fill="none" stroke="#F3F4F6" stroke-width="10"/>
    <path d="M286 186c-26-18-56-10-70 4v72c14 14 44 22 70 4" fill="#BAF7E5" opacity="0.25"/>
  </g>

  <text x="256" y="460" text-anchor="middle" font-family="Inter, system-ui, -apple-system, Segoe UI, Roboto" font-size="28" fill="#F9FAFB">Tazones schoperos</text>
</svg>

