<svg xmlns="http://www.w3.org/2000/svg" viewBox="0 0 512 512" width="512" height="512" fill="none">
  <defs>
    <linearGradient id="copper" x1="0" y1="0" x2="1" y2="1">
      <stop offset="0%" stop-color="#D2A679"/>
      <stop offset="100%" stop-color="#E4BF89"/>
    </linearGradient>
    <linearGradient id="steel" x1="0" y1="0" x2="1" y2="1">
      <stop offset="0%" stop-color="#BFC8D2"/>
      <stop offset="100%" stop-color="#9FA8B8"/>
    </linearGradient>
    <filter id="shadow" x="-20%" y="-20%" width="140%" height="140%">
      <feDropShadow dx="0" dy="4" stdDeviation="6" flood-color="#000" flood-opacity="0.12"/>
    </filter>
  </defs>

  <rect x="24" y="24" width="464" height="464" rx="28" fill="#F9F5EC"/>

  <!-- Copper beer mug -->
  <g filter="url(#shadow)" stroke-linecap="round" stroke-linejoin="round">
    <rect x="92" y="160" width="148" height="180" rx="16" fill="url(#copper)" stroke="#2F2A2A" stroke-width="8"/>
    <rect x="92" y="140" width="148" height="28" rx="10" fill="#E8CBA6" stroke="#2F2A2A" stroke-width="6"/>
    <rect x="104" y="180" width="124" height="24" rx="6" fill="#EAD3BA" opacity="0.55"/>
    <path d="M250 182c26-18 56-10 70 4v80c-14 14-44 22-70 4" fill="none" stroke="#2F2A2A" stroke-width="10"/>
    <path d="M250 186c26-18 56-10 70 4v72c-14 14-44 22-70 4" fill="#F6E7B2" opacity="0.35"/>
  </g>

  <!-- Stainless steel beer mug -->
  <g filter="url(#shadow)" stroke-linecap="round" stroke-linejoin="round">
    <rect x="286" y="160" width="148" height="180" rx="16" fill="url(#steel)" stroke="#2F2A2A" stroke-width="8"/>
    <rect x="286" y="140" width="148" height="28" rx="10" fill="#D8DEE6" stroke="#2F2A2A" stroke-width="6"/>
    <rect x="298" y="180" width="124" height="24" rx="6" fill="#E5E7EB" opacity="0.7"/>
    <path d="M286 182c-26-18-56-10-70 4v80c14 14 44 22 70 4" fill="none" stroke="#2F2A2A" stroke-width="10"/>
    <path d="M286 186c-26-18-56-10-70 4v72c14 14 44 22 70 4" fill="#DCEFE6" opacity="0.25"/>
  </g>
</svg>

